<?xml version="1.0" encoding="utf-8"?>
<!-- Generator: Adobe Illustrator 28.1.0, SVG Export Plug-In . SVG Version: 6.00 Build 0)  -->
<svg version="1.1" id="combined_anatomy" xmlns="http://www.w3.org/2000/svg" xmlns:xlink="http://www.w3.org/1999/xlink" x="0px"
	 y="0px" viewBox="0 0 859 840.6" style="enable-background:new 0 0 859 840.6;" xml:space="preserve">
<style type="text/css">
	.st0{fill:none;stroke:#000000;stroke-width:2.81;stroke-miterlimit:11.25;}
	.st1{fill:none;stroke:#000000;stroke-width:2.81;stroke-miterlimit:8.22;}
	.st2{fill:none;stroke:#000000;stroke-width:2;stroke-miterlimit:10;}
	.st3{fill:none;stroke:#000000;stroke-width:2;stroke-miterlimit:5;}
	.st4{fill:none;stroke:#000000;stroke-width:2;stroke-linecap:round;stroke-linejoin:round;}
	.st5{fill:none;stroke:#000000;stroke-miterlimit:10;}
	.st6{fill:none;stroke:#000000;stroke-width:0.4;}
	.st7{fill:none;stroke:#000000;stroke-width:0.4;stroke-linecap:round;stroke-linejoin:round;}
	.st8{fill:none;stroke:#000000;stroke-linecap:round;stroke-linejoin:round;}
	.st9{fill:none;stroke:#000000;stroke-width:0.8;stroke-miterlimit:8;}
</style>
<g id="group_breast_quadrants">
	<g id="layer1">
		<path id="path3084" class="st0" d="M503.7,0.1c-2.8,43.3,38.7,52.6,59.3,57.8"/>
		<path id="path3086" class="st0" d="M520.5,64.8c166-45.8,180.9,149,204.1,241.9"/>
		<path id="path3088" class="st0" d="M640.6,318l-36.9-116.1"/>
		<path id="path3094" class="st0" d="M603.6,239.4v-37.4"/>
		<path id="path3096" class="st0" d="M595.1,217.7c76.2,184.4-123.2,187-129.2,81.8"/>
		<path id="path3098" class="st0" d="M569.3,312.7c0,7.3-5.9,13.2-13.2,13.2c-7.3,0-13.2-5.9-13.2-13.2v0c0-7.3,5.9-13.2,13.2-13.2
			C563.4,299.5,569.3,305.4,569.3,312.7L569.3,312.7z"/>
		<path id="path3874" class="st0" d="M560.8,312.7c0,2.5-2.1,4.6-4.6,4.6s-4.6-2.1-4.6-4.6l0,0c0-2.6,2.1-4.6,4.6-4.6
			S560.8,310.2,560.8,312.7L560.8,312.7L560.8,312.7z"/>
		<path id="path3888" class="st0" d="M396.1,0.1c2.8,43.3-38.7,52.6-59.2,57.8"/>
		<path id="path3890" class="st0" d="M379.2,64.8c-166-45.8-180.9,149-204.1,241.9"/>
		<path id="path3892" class="st0" d="M259.2,318l36.9-116.1"/>
		<path id="path3896" class="st0" d="M296.1,239.4v-37.4"/>
		<path id="path3898" class="st0" d="M304.6,217.7c-76.1,184.4,123.2,187,129.2,81.8"/>
		<path id="path3900" class="st0" d="M330.4,312.7c0,7.3,5.9,13.2,13.2,13.2c7.3,0,13.2-5.9,13.2-13.2v0c0-7.3-5.9-13.2-13.2-13.2
			C336.3,299.5,330.4,305.4,330.4,312.7L330.4,312.7z"/>
		<path id="path3902" class="st0" d="M339,312.7c0,2.5,2.1,4.6,4.6,4.6s4.6-2.1,4.6-4.6l0,0c0-2.6-2.1-4.6-4.6-4.6
			S339,310.2,339,312.7L339,312.7L339,312.7z"/>
		<g id="g3972">
			<g id="g3962">
				<path id="path3958" class="st1" d="M343.6,233.8V301"/>
				<path id="path3960" class="st1" d="M343.6,324.5v67.2"/>
			</g>
			<g id="g3966">
				<path id="path3968" class="st1" d="M422.5,312.7h-67.2"/>
				<path id="path3970" class="st1" d="M331.8,312.7h-67.2"/>
			</g>
		</g>
		<g id="g3980">
			<g id="g3982">
				<path id="path3984" class="st1" d="M556.2,233.8V301"/>
				<path id="path3986" class="st1" d="M556.2,324.5v67.2"/>
			</g>
			<g id="g3988">
				<path id="path3990" class="st1" d="M635.1,312.7h-67.2"/>
				<path id="path3992" class="st1" d="M544.4,312.7h-67.2"/>
			</g>
		</g>
	</g>
</g>
<g id="group_abdomen">
	<path class="st2" d="M301.7,387.9c26,27.6,38.9,63.5,38.9,107.6c0,66.2-56.3,116.9-65.8,153.1c-6.3,24.2-9.2,53.1-8.9,86.9
		l20.5-111.3c59.7,37.8,113.9,56.7,162.6,56.7s100.3-18.9,154.6-56.7l20.5,111.3c0.4-33.8-2.6-62.8-8.9-86.9
		c-9.4-36.2-65.8-86.9-65.8-153.1c0-44.1,13-80,38.9-107.6H301.7L301.7,387.9z"/>
</g>
<path class="st2" d="M114.5,512.9c97.5-5.5,42.9,46.3-15.3,63.4c-11.3,7.8-17.7,8.6-27.1,13.4c-10.6,4.4-34.6,36.1-44.3,35.2
	c-14.4,0.3-14.8-19.6-19.9-31c-15.8-37.5-8.7-82.5,44-83.7c14.3,0.3,29.7,1.7,44.1,2.9C105.1,512.9,113.6,513,114.5,512.9
	L114.5,512.9L114.5,512.9z"/>
<g id="group_adrenal_gland">
	<path id="path3827" class="st3" d="M115.6,818.2c0.1-11.1,2.6-26.6-5.9-35.3c-8-8.1-35.9-9.3-30.4-22.1c3.9-9,5.6-19.6,15.4-19.8
		c5.6-0.2,10.2,0.7,19.4,10.3c15.4,16.1,11,49.2,10.7,66.9C122,818.2,118.3,818.3,115.6,818.2L115.6,818.2L115.6,818.2z"/>
	<path id="path2982" class="st3" d="M51.6,696.2c-6.5,3.7-13,5.9-18.2,11.3c-4.3,4.5-6,10-9.7,15c-6.9,9.3-12.5,24-12.7,37.2
		c-0.2,12.5,6.7,27.4,13.3,37.9c8.9,14,23.4,22.1,40,22.8c13.4,0.5,29.2-5.7,35.8-17.4c2.6-4.6,3.5-15.5,2.6-23.2
		c-0.9-7.6-7.2-13.7-6.9-21.3c0.4-8.4,3-12.3,11.2-22.6c2.1-2.6,1.6-6,0.8-9.2C101.2,700.9,78.9,680.5,51.6,696.2L51.6,696.2
		L51.6,696.2L51.6,696.2z"/>
	<path id="path4115" class="st3" d="M52.7,696.9c-2.8-0.8,2-6.6,4-8.7c2.3-2.3,5-2.7,7.5-4.8c2.1-1.8,3-4,5.2-5.7
		c2.6-2,6.2-2.9,8.8-4.8c2.2-1.6,3.5-3.9,5.8-5.3c4.3-2.7,10.1-5.2,14.8-3.3c3.7,1.5,4.6,5.3,6.3,8.8c2.4,4.9,4.8,10.1,5.3,15.5
		c0.3,3-1.4,5.9-1.3,8.8c0.2,5.2,3.7,10.1,3.5,15.3c-0.2,5.5-1.5,15.1-4.7,15.8c-1.9,0.5-3-5.2-5.7-7.5c-2.4-2.2-5.5-3.9-7.8-6.2
		c-2.8-2.8-3.9-6.3-7.3-8.3c-3.6-2.1-8.3-1.9-12.2-3.3c-4.5-1.6-7.1-6.2-11.8-7.2C54.8,694.3,54.5,697.4,52.7,696.9L52.7,696.9
		L52.7,696.9z"/>
</g>
<g id="group_bone">
	<path class="st4" d="M778.8,313.1c-5.2,5.2-7.9,14.3-5.9,21.4c1,3.8,1.2,8.3-1.5,11l-39.9,39.9c-2.8,2.8-7.3,2.6-11,1.5
		c-7.1-2-16.2,0.7-21.4,5.9c-6.9,6.9-6.9,18,0,24.9s18,6.9,24.9,0c-6.9,6.9-6.9,18,0,24.9s18,6.9,24.9,0c5.2-5.2,7.9-14.3,5.9-21.4
		c-1-3.8-1.2-8.3,1.5-11l39.9-39.9c2.8-2.8,7.3-2.6,11-1.5c7.1,2,16.2-0.7,21.4-5.9c6.9-6.9,6.9-18,0-24.9s-18-6.9-24.9,0
		c6.9-6.9,6.9-18,0-24.9S785.7,306.2,778.8,313.1L778.8,313.1L778.8,313.1z"/>
</g>
<g id="group_skin">
	<path class="st5" d="M769.2,512.6c-7.7-19.7-16.7-31.7-19.7-35.3c-0.5-0.6-1.5-0.7-2.1-0.2l0,0c-0.6,0.5-0.7,1.4-0.3,2
		c5.8,8.2,17.3,29.5,17.3,48.9c0,14.2-4.7,21.4-4.6,28c0,5.2,4.2,9.4,9.4,9.4c4.1,0,8.8-3.2,9.7-8.9
		C780,549.4,777,532.2,769.2,512.6L769.2,512.6L769.2,512.6z M789.3,521.5c-2.7,0-5.2,1.2-7,3.2c-1.7,2-2.4,4.7-2,7.3
		c0.5,3.1,1.5,5.9,2.5,8.9c1.6,4.6,3.2,9.3,3.2,15.6c0,9.1-7.1,16.3-16.2,16.3s-16.2-7.1-16.2-16.3c0-6.1,1.8-10.8,3.4-15.3
		c1.2-3.1,2.2-6,2.8-9.2c0.4-2.6-0.3-5.2-2-7.3c-1.7-2.1-4.3-3.2-7-3.2h-44.7v80.2h128v-80.2L789.3,521.5L789.3,521.5z M786.9,528.6
		c0.6-0.7,1.5-1.1,2.5-1.1h38.9v17.4c-3.2,0.6-5.2,2.1-6.8,3.4c-1.7,1.4-3,2.4-5.8,2.4s-4-1-5.8-2.4c-2.1-1.6-4.6-3.6-9.4-3.6
		s-7.2,1.9-9.2,3.4c-0.7-3.3-1.7-6.3-2.7-9c-1-2.8-1.8-5.3-2.3-8C786,529.9,786.5,529,786.9,528.6L786.9,528.6L786.9,528.6z
		 M750.9,527.5c1,0,1.8,0.4,2.5,1.2c0.3,0.4,0.9,1.3,0.7,2.5c-0.5,2.7-1.4,5.3-2.5,8.1c-1,2.7-2.1,5.6-2.8,8.9
		c-2-1.6-4.6-3.5-9.3-3.5s-7.4,2-9.4,3.6c-1.7,1.4-3,2.4-5.8,2.4s-4-1-5.8-2.4c-1.6-1.2-3.4-2.7-6.4-3.3v-17.5H750.9L750.9,527.5z
		 M712.1,595.9v-44.8c1,0.4,1.8,1,2.7,1.8c2,1.6,4.6,3.6,9.4,3.6s7.4-2,9.4-3.6c1.7-1.4,3-2.4,5.8-2.4s4,1,5.8,2.4
		c0.8,0.6,1.6,1.2,2.6,1.8c0,0.6,0,1.2,0,1.8c0,12.4,9.7,22.2,22.2,22.2s22.2-9.7,22.2-22.2c0-0.6,0-1.2,0-1.8
		c1-0.6,1.8-1.2,2.6-1.8c1.7-1.4,3-2.4,5.8-2.4s4,1,5.8,2.4c2,1.6,4.6,3.6,9.4,3.6s7.4-2,9.4-3.6c1.1-0.9,2-1.6,3.2-2v45H712.1z"/>
</g>
<g id="group_lymph_node">
	<g>
		<path class="st4" d="M800.8,747.7c1.8-6.3,8.1-16.9,10.2-23.8s3.6-11.7,2.2-17.6s-4.6-13.5-10.8-17.6s-17.4-7.7-26.4-7.2
			s-20.3,5.3-27.6,10.4c-7.3,5.1-11.7,11.6-16,20.4s-8.3,21.5-9.6,32.4c-1.3,10.9-0.5,24.4,1.6,33.2s5.3,13.8,11.2,19.6
			s15.8,13.2,24.4,15.2s20.3,0.2,27.2-3.2s11.3-11.4,14-17.2s2.2-12.5,2-17.6s-2.8-8.3-3.2-12.8S798.9,754,800.8,747.7L800.8,747.7
			L800.8,747.7z"/>
		<path class="st6" d="M798.8,738.3c2.2-3.2,5.6-6.9,7.2-11.6s2.4-11.9,2.2-16.4s-1.8-7.4-3.2-10.4s-3.2-5.9-5.4-7.6s-6.3-3.3-8-2.8
			s-1.9,3.5-2.4,5.8s-0.9,5.5-0.6,7.8s2.1,4.5,2.4,6.2s-0.1,4.4-0.6,4s-1.6-5.6-2.4-6.4s-1.3,0.5-2.4,1.8s-3.1,5.1-4.2,6
			s-2.7,0.7-2.6-0.6s2.1-4.8,3.2-7s3.1-3.7,3.6-6.2s0.6-6.3-0.4-8.6s-2.8-4.4-5.4-5s-6.7,0.6-10.2,1.4s-7.7,2-10.6,3.4
			s-4.8,3.1-7,4.8s-5.4,3.6-6,5.6s1.4,4.7,2.4,6.2s1.8,2.1,3.4,3s3.7,0.7,6,2.2s6.2,5.2,8,7s3.3,3.8,2.8,4s-3.9-1.7-5.8-3
			s-3.3-3.8-5.4-5s-5.4-1.1-7.2-2s-2.3-2.7-3.6-3.6s-2.7-2.3-4-2s-2.6,1.7-4,4s-3,6.3-4.2,9.6s-2.5,7.7-2.8,10.2s-0.2,3.8,0.8,4.8
			s3.5,0.4,5.4,1s3.7,2.3,5.8,2.6s4.7-0.5,6.8-0.6s4-0.4,6,0s6,1.9,6,2.4s-3.5,0.1-6,0.4s-5.9,1.2-8.8,1.2s-6.3-0.7-8.8-1.2
			s-4.3-1.9-6-1.8s-3.1,0.5-4,2.4s-1.5,6.4-1.6,8.8s1,3.8,1.2,5.8s-0.2,3.7,0,6s1.2,5.6,1.4,7.6s-0.6,2.8,0,4.2s1.8,4.4,3.4,4.4
			s4.3-3.6,6.2-4.6s2.9-0.2,5.2-1.6s6.3-4.5,8.4-6.6s2.8-4.7,4.4-6s5-2.8,5-1.8s-3.6,5.4-5.2,7.8s-3.2,5.2-4.6,6.8s-1.8,1.5-3.8,2.6
			s-5.9,2.8-8,4.2s-3.9,3.2-4.6,4.4s-0.7,1.3,0.4,2.8s3.7,3.9,6.2,6.2s6.3,5.8,8.6,7.4s2.8,1.3,5,2s6.3,2.6,8.4,2.4s3.5-1.8,4-3.4
			s-1.4-3.7-1-6s2.8-5.3,3.4-7.6s0-4.2,0-6.2s-0.6-3.8,0.2-5.8s4.1-6.7,4.6-6.2s-1.6,6.3-1.8,9.2s0.7,5.8,0.6,8.2s-1,4-1.4,6
			s-1,4-0.8,5.8s0.2,4.5,1.8,5s4.4-0.2,7.6-1.8s8.9-4.7,11.4-7.8s2.8-7.1,3.4-11s0.5-8.8,0-12.2s-1.9-5.7-2.8-8.4s-2.2-4.7-2.4-7.8
			s0.2-7.9,1.4-11S796.6,741.5,798.8,738.3L798.8,738.3L798.8,738.3z"/>
		<path class="st7" d="M798.8,738.3c2.2-3.2,5.6-6.9,7.2-11.6s2.4-11.9,2.2-16.4s-1.8-7.4-3.2-10.4s-3.2-5.9-5.4-7.6s-6.3-3.3-8-2.8
			s-1.9,3.5-2.4,5.8s-0.9,5.5-0.6,7.8s2.1,4.5,2.4,6.2s-0.1,4.4-0.6,4s-1.6-5.6-2.4-6.4s-1.3,0.5-2.4,1.8s-3.1,5.1-4.2,6
			s-2.7,0.7-2.6-0.6s2.1-4.8,3.2-7s3.1-3.7,3.6-6.2s0.6-6.3-0.4-8.6s-2.8-4.4-5.4-5s-6.7,0.6-10.2,1.4s-7.7,2-10.6,3.4
			s-4.8,3.1-7,4.8s-5.4,3.6-6,5.6s1.4,4.7,2.4,6.2s1.8,2.1,3.4,3s3.7,0.7,6,2.2s6.2,5.2,8,7s3.3,3.8,2.8,4s-3.9-1.7-5.8-3
			s-3.3-3.8-5.4-5s-5.4-1.1-7.2-2s-2.3-2.7-3.6-3.6s-2.7-2.3-4-2s-2.6,1.7-4,4s-3,6.3-4.2,9.6s-2.5,7.7-2.8,10.2s-0.2,3.8,0.8,4.8
			s3.5,0.4,5.4,1s3.7,2.3,5.8,2.6s4.7-0.5,6.8-0.6s4-0.4,6,0s6,1.9,6,2.4s-3.5,0.1-6,0.4s-5.9,1.2-8.8,1.2s-6.3-0.7-8.8-1.2
			s-4.3-1.9-6-1.8s-3.1,0.5-4,2.4s-1.5,6.4-1.6,8.8s1,3.8,1.2,5.8s-0.2,3.7,0,6s1.2,5.6,1.4,7.6s-0.6,2.8,0,4.2s1.8,4.4,3.4,4.4
			s4.3-3.6,6.2-4.6s2.9-0.2,5.2-1.6s6.3-4.5,8.4-6.6s2.8-4.7,4.4-6s5-2.8,5-1.8s-3.6,5.4-5.2,7.8s-3.2,5.2-4.6,6.8s-1.8,1.5-3.8,2.6
			s-5.9,2.8-8,4.2s-3.9,3.2-4.6,4.4s-0.7,1.3,0.4,2.8s3.7,3.9,6.2,6.2s6.3,5.8,8.6,7.4s2.8,1.3,5,2s6.3,2.6,8.4,2.4s3.5-1.8,4-3.4
			s-1.4-3.7-1-6s2.8-5.3,3.4-7.6s0-4.2,0-6.2s-0.6-3.8,0.2-5.8s4.1-6.7,4.6-6.2s-1.6,6.3-1.8,9.2s0.7,5.8,0.6,8.2s-1,4-1.4,6
			s-1,4-0.8,5.8s0.2,4.5,1.8,5s4.4-0.2,7.6-1.8s8.9-4.7,11.4-7.8s2.8-7.1,3.4-11s0.5-8.8,0-12.2s-1.9-5.7-2.8-8.4s-2.2-4.7-2.4-7.8
			s0.2-7.9,1.4-11S796.6,741.5,798.8,738.3L798.8,738.3L798.8,738.3z"/>
		<path class="st6" d="M748.8,715.8c2.2,0.8,5.2,2.1,6.4,4.5s1.8,7.1,1,10.2s-3.2,7.2-5.8,8.4s-7.4-1.1-9.8-1.4s-3.3,0-4.4-0.6
			s-2.3-1.4-2.4-3s1.2-3.9,2-6.4s1.5-6.6,2.5-8.5s2.1-2.7,3.9-3.3C743.9,715.1,746.6,715,748.8,715.8L748.8,715.8L748.8,715.8z"/>
		<path class="st6" d="M738,727.5L738,727.5c0-4.8,3.6-8.6,8-8.6l0,0c2.1,0,4.2,0.9,5.7,2.5c1.5,1.6,2.3,3.8,2.3,6.1l0,0
			c0,4.8-3.6,8.6-8,8.6l0,0C741.5,736.1,738,732.2,738,727.5L738,727.5L738,727.5z"/>
		<path class="st6" d="M742.2,727.6L742.2,727.6c0-2.7,1.7-4.9,3.8-4.9l0,0c1,0,2,0.5,2.7,1.4s1.1,2.2,1.1,3.5l0,0
			c0,2.7-1.7,4.9-3.8,4.9l0,0C743.8,732.5,742.1,730.3,742.2,727.6L742.2,727.6L742.2,727.6z"/>
		<path class="st6" d="M756.4,696.8c2-0.7,5-1.2,7.1-2c2.1-0.8,3-2.3,5.6-2.8s7.8-1.8,10.2-0.4s4.3,5.9,4.2,8.6s-2.6,6.3-4.8,7.4
			s-6.3-0.7-8.2-0.6s-1.4,0.7-3,1.4s-3.9,3-6.4,3s-6.6-2-8.4-3.2s-2.4-2.5-2.6-4s0.5-4,1.6-5.2S754.5,697.5,756.4,696.8L756.4,696.8
			L756.4,696.8z"/>
		<path class="st6" d="M753.3,703.8L753.3,703.8c0-3.6,2.9-6.4,6.5-6.4l0,0c1.7,0,3.4,0.7,4.6,1.9s1.9,2.8,1.9,4.6l0,0
			c0,3.6-2.9,6.4-6.5,6.4l0,0C756.3,710.3,753.3,707.4,753.3,703.8L753.3,703.8L753.3,703.8z"/>
		<path class="st6" d="M757.2,705.6L757.2,705.6c0-1.8,1.7-3.3,3.8-3.3l0,0c2.1,0,3.8,1.5,3.8,3.3l0,0c0,1.8-1.7,3.3-3.8,3.3l0,0
			C758.9,708.9,757.2,707.4,757.2,705.6z"/>
		<path class="st6" d="M769.4,696.1L769.4,696.1c2-3,6-3.9,9-1.9l0,0c1.4,1,2.4,2.4,2.8,4.1s0,3.5-1,4.9l0,0c-2,3-6,3.9-9,1.9l0,0
			C768.2,703.2,767.4,699.1,769.4,696.1L769.4,696.1L769.4,696.1z"/>
		<path class="st6" d="M770.2,701L770.2,701c0-1.8,1.7-3.3,3.8-3.3l0,0c2.1,0,3.8,1.5,3.8,3.3l0,0c0,1.8-1.7,3.3-3.8,3.3l0,0
			C771.9,704.3,770.2,702.8,770.2,701z"/>
		<path class="st6" d="M763,799.1c0.9-1.3,2.2-4.5,2-7.6s-1.5-8.9-3.2-11.2s-5.1-2.1-7.2-2.4s-3.6-0.5-5.6,0.8s-5.6,4.9-6.2,7
			s1,3.7,2.6,5.6s4.6,4.3,7,5.6s5.6,2,7.4,2.4S762.1,800.4,763,799.1L763,799.1L763,799.1z"/>
		<path class="st6" d="M746.3,787.8L746.3,787.8c0-4.1,3.6-7.5,8-7.5l0,0c2.1,0,4.2,0.8,5.7,2.2c1.5,1.4,2.3,3.3,2.3,5.3l0,0
			c0,4.1-3.6,7.5-8,7.5l0,0C749.9,795.3,746.3,791.9,746.3,787.8L746.3,787.8z"/>
		<path class="st6" d="M749.8,787.8L749.8,787.8c0-2.7,2-4.9,4.4-4.9l0,0c1.2,0,2.3,0.5,3.1,1.4c0.8,0.9,1.3,2.2,1.3,3.5l0,0
			c0,2.7-2,4.9-4.4,4.9l0,0C751.7,792.7,749.7,790.5,749.8,787.8L749.8,787.8L749.8,787.8z"/>
		<path class="st6" d="M745,754.5c-0.4-1.7-3.4-4.6-5.4-5.8s-5-1.9-6.6-1.4s-2.9,2.6-3.2,4.2s0.7,3.9,1.2,5.6s1.9,3.1,2,4.4
			s-1.6,1.6-1.6,3.4s0.5,5.6,1.6,7.2s3.5,2.5,4.8,2.5c1.4-0.1,2.4-1.5,3.4-2.9s2.4-4,2.6-5.6s-0.9-2.8-1.2-4s-0.8-2-0.4-3.2
			S745.4,756.2,745,754.5L745,754.5L745,754.5z"/>
		<path class="st6" d="M732.7,767.2L732.7,767.2c0-2,2-3.5,4.4-3.5l0,0c2.4,0,4.4,1.6,4.4,3.5l0,0c0,2-2,3.5-4.4,3.5l0,0
			C734.6,770.7,732.7,769.1,732.7,767.2z"/>
		<path class="st6" d="M734,767.2L734,767.2c0-1.4,1.4-2.5,3.1-2.5l0,0c1.7,0,3.1,1.1,3.1,2.5l0,0c0,1.4-1.4,2.5-3.1,2.5l0,0
			C735.3,769.7,734,768.6,734,767.2z"/>
		<path class="st6" d="M731.7,753.8L731.7,753.8c0-2,2-3.5,4.4-3.5l0,0c2.4,0,4.4,1.6,4.4,3.5l0,0c0,2-2,3.5-4.4,3.5l0,0
			C733.6,757.3,731.7,755.7,731.7,753.8z"/>
		<path class="st6" d="M733,753.8L733,753.8c0-1.4,1.4-2.5,3.1-2.5l0,0c1.7,0,3.1,1.1,3.1,2.5l0,0c0,1.4-1.4,2.5-3.1,2.5l0,0
			C734.3,756.3,733,755.2,733,753.8z"/>
		<path class="st6" d="M782,788.3c1.4-0.3,5-0.2,6.6,0s2.5,0.4,3,1.4s0.7,3.1,0,4.6s-2.7,3.4-4.2,4.6s-3.6,1.8-5,2.4s-2.4,1-3.4,1
			s-2.3,0.2-2.4-1.2s1.2-5.6,1.8-7.4s1.2-2.7,1.8-3.6S780.5,788.6,782,788.3L782,788.3L782,788.3z"/>
		<path class="st6" d="M780.8,794.5L780.8,794.5c0-2,2-3.5,4.4-3.5l0,0c2.4,0,4.4,1.6,4.4,3.5l0,0c0,2-2,3.5-4.4,3.5l0,0
			C782.8,798,780.8,796.5,780.8,794.5z"/>
		<path class="st6" d="M782.2,794.5L782.2,794.5c0-1.4,1.4-2.5,3.1-2.5l0,0c1.7,0,3.1,1.1,3.1,2.5l0,0c0,1.4-1.4,2.5-3.1,2.5l0,0
			C783.5,797,782.2,795.9,782.2,794.5z"/>
		<path class="st6" d="M791.8,693.7c-1.2,1.4-1.8,6.9-1.4,8.8s2.1,2.6,4,2.8s6.2-0.3,7.4-1.6s0.7-4.4,0-6s-2.7-3.1-4.4-3.8
			S792.9,692.2,791.8,693.7z"/>
		<path class="st6" d="M791.5,699.7L791.5,699.7c0-2,2-3.5,4.4-3.5l0,0c2.4,0,4.4,1.6,4.4,3.5l0,0c0,2-2,3.5-4.4,3.5l0,0
			C793.4,703.3,791.5,701.7,791.5,699.7z"/>
		<path class="st6" d="M792.8,699.8L792.8,699.8c0-1.4,1.4-2.5,3.1-2.5l0,0c1.7,0,3.1,1.1,3.1,2.5l0,0c0,1.4-1.4,2.5-3.1,2.5l0,0
			C794.1,702.3,792.8,701.2,792.8,699.8z"/>
		<path class="st6" d="M720.5,670.1c4.6-0.5,21.3-5.4,27.5-3.2s7,12.3,9.3,16.6c2.3,4.3,3.7,7.7,4.5,9.3"/>
		<path class="st8" d="M720.5,670.1c4.6-0.5,21.3-5.4,27.5-3.2s7,12.3,9.3,16.6c2.3,4.3,3.7,7.7,4.5,9.3"/>
		<path class="st6" d="M694.6,718.9c0.6,3.6,0.8,16.5,3.5,21.7c2.7,5.2,7.3,8.1,12.5,9.6s15.4-0.8,18.5-1"/>
		<path class="st8" d="M694.6,718.9c0.6,3.6,0.8,16.5,3.5,21.7c2.7,5.2,7.3,8.1,12.5,9.6s15.4-0.8,18.5-1"/>
		<path class="st6" d="M699.7,804.5c2.5,1.7,10.2,7.8,14.7,9.9c4.5,2.1,7.8,4,12.1,2.9s10.2-6.1,13.7-9.9c3.5-3.8,6.1-10.6,7.3-12.8
			"/>
		<path class="st8" d="M699.7,804.5c2.5,1.7,10.2,7.8,14.7,9.9c4.5,2.1,7.8,4,12.1,2.9s10.2-6.1,13.7-9.9c3.5-3.8,6.1-10.6,7.3-12.8
			"/>
		<path class="st6" d="M791,751.8c3.5,0.4,14.8,3.9,20.8,2.2s10.5-7.8,15-12.1s6.9-10.8,12.1-13.7c5.2-2.9,16-2.9,19.2-3.5"/>
		<path class="st8" d="M791,751.8c3.5,0.4,14.8,3.9,20.8,2.2s10.5-7.8,15-12.1s6.9-10.8,12.1-13.7c5.2-2.9,16-2.9,19.2-3.5"/>
	</g>
</g>
<g id="group_ovary">
	<path class="st9" d="M385.1,716.9c-4.2,0.5-8.3,1.4-12.4,2.5c-1.2,0.3-2.5,0.2-3.7-0.2c-1.1-0.4-1.8-1.5-2.9-1.8
		c-0.6-0.2-1.2-0.2-1.8-0.2s-1.2-0.3-1.6-0.7c-0.3-0.3-0.5-0.8-0.8-1.2c-0.6-0.6-1.5-0.7-2.4-0.6c-0.7,0.1-1.4,0.2-2,0
		c-0.6-0.2-1-0.5-1.4-1c-0.6-0.7-1-1.3-1.9-1.7c-0.9-0.4-1.9-0.7-2.8-0.9c-2.2-0.6-4.6-0.7-6.9,0c-0.3,0.1-0.7,0.2-1,0.2
		c-0.4,0-0.7-0.2-1.1-0.3c-1-0.3-2-0.3-3-0.2c-0.9,0-1.7,0.1-2.5,0.4c-0.4,0.2-0.8,0.4-1.2,0.5c-0.6,0.2-1.1,0.2-1.7,0.3
		c-2.6,0.5-4.7,3.4-4.5,6c0.1,1.6,1,3.7,2.1,4.9c1.1,1.3,2.8,2.3,4.5,2.4c0.4,0,0.7,0,1,0.2c0.4,0.2,0.5,0.6,0.8,1
		c1.1,2.1,3.6,3.4,6,3.2c0.4,0,0.8-0.1,1.1,0c0.3,0.1,0.6,0.3,0.9,0.5c2.5,1.8,5.9,2.3,8.8,1.3c0.5-0.2,0.9-0.3,1.4-0.4
		c0.6,0,1.2,0.2,1.8,0.3c2.4,0.6,5.1,0.1,7.1-1.2c1.1-0.7,2.2-1.7,3.1-2.6s1.6-2.2,2.7-3c0.7-0.6,1.6-0.9,2.5-1.2
		c2.1-0.6,4.4-0.9,6.6-1.1c5.3-0.6,10.5-1,15.8-0.3c1.1,0.2,2.2,0.3,3.2,0.7c1.6,0.5,3.1,1.3,4.5,2.2c0.2,0.1,0-1.6,0-1.8
		c-0.2-0.8-0.3-1.6-0.5-2.5c-0.2-0.8-0.4-1.7-0.6-2.5c-0.1-0.5-0.3-0.9-0.5-1.4c-0.2-0.6,0.2-0.5-0.4-0.6c-0.4-0.1-1.3,0.3-1.8,0.3
		c-0.6,0.1-1.2,0.1-1.8,0.1c-1.1,0-2.3-0.1-3.5-0.1C391.3,716.4,388.2,716.6,385.1,716.9L385.1,716.9L385.1,716.9L385.1,716.9z"/>
	<path class="st9" d="M504,716.9c2.5,0.3,5,0.8,7.4,1.3c1,0.2,2.1,0.5,3.1,0.7c0.4,0.1,0.8,0.1,1.1,0.3c0.4,0.2,0.8,0.4,1.2,0.2
		c0.5-0.2,0.9-0.7,1.2-1.1c0.9-1,2.3-1.5,3.7-1.4c0.5,0,1.1,0.2,1.6,0.1c1.7-0.2,2.1-2.1,3.5-2.8c0.8-0.4,1.8-0.5,2.7-0.3
		c0.6,0.2,1.4,0.6,2.1,0.5c0.5-0.1,0.8-0.7,1.2-1.1c0.3-0.3,0.6-0.6,0.9-0.9c0.6-0.6,1.4-1,2.2-1.1c0.7-0.1,1.2-0.1,1.9-0.4
		c0.6-0.2,1.3-0.3,2-0.4c1.6-0.2,3.2,0,4.7,0.4c0.3,0.1,0.7,0.2,1,0.2c0.4,0,0.7-0.2,1.1-0.3c1-0.3,2-0.3,3-0.2
		c0.8,0,1.7,0.1,2.5,0.4c0.4,0.2,0.8,0.4,1.2,0.5c0.6,0.2,1.2,0.2,1.7,0.3c2.7,0.5,4.7,3.4,4.5,6c-0.1,1.6-1,3.7-2.1,4.9
		c-1.1,1.3-2.8,2.3-4.5,2.4c-0.3,0-0.7,0-1,0.2c-0.4,0.2-0.5,0.6-0.8,1c-1.2,2.1-3.6,3.4-6,3.2c-0.4,0-0.8-0.1-1.2,0
		c-0.3,0.1-0.6,0.3-0.9,0.5c-2.5,1.8-5.9,2.3-8.8,1.3c-0.5-0.2-0.9-0.3-1.4-0.4c-0.6,0-1.2,0.2-1.8,0.3c-2.4,0.6-5.1,0.1-7.2-1.2
		c-1.1-0.7-2.2-1.7-3.1-2.6s-1.6-2.2-2.7-3c-0.7-0.6-1.6-0.9-2.5-1.2c-2.1-0.6-4.4-0.9-6.6-1.1c-5.3-0.6-10.5-1-15.8-0.3
		c-1.1,0.2-2.2,0.3-3.2,0.7c-1.6,0.5-3.1,1.3-4.5,2.2c-0.2,0.1,0-1.6,0-1.8c0.2-0.8,0.3-1.6,0.5-2.5c0.2-0.8,0.4-1.7,0.6-2.5
		c0.1-0.5,0.3-0.9,0.5-1.4c0.2-0.6-0.2-0.5,0.4-0.6c0.4-0.1,1.3,0.3,1.8,0.3c0.6,0.1,1.2,0.1,1.8,0.1c1.1,0,2.3-0.1,3.5-0.1
		C497.8,716.4,500.9,716.6,504,716.9L504,716.9L504,716.9L504,716.9z"/>
	<g>
		<path class="st9" d="M424,840.2c-0.4-12.8-0.8-24.6-1-37.2c0-1.5,0-2.9-0.1-4.4c0-1,0-2,0-3c0-1,0-2.1,0-3.1c0-3-0.1-7.4-0.6-11.8
			v-1.9c0-2.5,0-5.2-0.2-7.9l-0.2-2.9c-0.1-1.3-0.2-2.8-0.8-4.2c-0.5-1.2-1.2-2.4-1.9-3.5c-0.4-0.6-0.8-1.2-1.1-1.8
			c-1-1.8-1.8-3.5-2.5-5.2c-1.7-3.9-2.9-7.5-3.6-11c-0.2-1.2-0.4-2.5-0.6-3.7c-0.4-2.3-0.7-4.8-1.4-7.1c-0.3-1.1-0.8-2.1-1.2-3.1
			c-0.2-0.5-0.5-1.1-0.7-1.6c-0.6-1.6-1.3-3.2-2-4.8c-1.4-3-2.9-6.1-4.6-9.2c-1.1-2.1-1.2-3.5-0.3-4.2c0.7-0.5,1.8-0.6,2.9-0.7
			c0.6,0,1.1-0.1,1.7-0.2c0.8-0.2,1.6-0.5,2.2-0.7l15.1-6.2c1.9-0.8,3.8-1.5,5.7-2.1c1.7-0.5,3.6-0.8,5.2-1
			c3.5-0.6,8.6-0.9,11.2-0.9s7.6,0.3,11.2,0.9c1.6,0.3,3.5,0.6,5.2,1c1.9,0.5,3.8,1.3,5.7,2.1l15.1,6.2c0.6,0.3,1.4,0.6,2.2,0.7
			c0.6,0.1,1.2,0.1,1.7,0.2c1.1,0.1,2.2,0.2,2.9,0.7c1,0.7,0.9,2.1-0.3,4.2c-1.7,3.1-3.2,6.2-4.6,9.2c-0.7,1.6-1.4,3.2-2,4.8
			c-0.2,0.5-0.5,1.1-0.7,1.6c-0.4,1-0.9,2-1.2,3.1c-0.7,2.3-1.1,4.8-1.4,7.1c-0.2,1.2-0.4,2.5-0.6,3.7c-0.7,3.5-1.9,7.2-3.6,11
			c-0.7,1.7-1.6,3.4-2.5,5.2c-0.3,0.6-0.7,1.2-1.1,1.8c-0.7,1.1-1.4,2.2-1.9,3.5c-0.5,1.4-0.7,2.9-0.8,4.2l-0.2,2.9
			c-0.2,2.8-0.2,5.4-0.2,7.9v1.9c-0.5,4.4-0.6,8.8-0.6,11.8c0,1.1,0,2.1,0,3.1c0,1,0,2,0,3c0,1.5,0,3-0.1,4.4
			c-0.2,12.6-0.5,24.5-1,37.2h1.6c0.6-16.6,1-30.2,1.2-47.8c0-3.6,0.2-7.7,0.6-11.8c0-3.2-0.1-6.4,0.2-9.8c0.1-1,0.2-1.9,0.2-2.9
			c0.1-1.2,0.2-2.5,0.7-3.7c0.7-1.8,2-3.4,2.9-5.1c0.9-1.7,1.8-3.5,2.6-5.3c1.6-3.7,2.9-7.5,3.7-11.4c0.7-3.5,0.9-7.2,2-10.7
			c0.5-1.6,1.3-3.1,1.9-4.6c0.6-1.6,1.3-3.2,2-4.8c1.4-3.1,2.9-6.2,4.5-9.1c1.1-2,2-4.8-0.2-6.3c-1.5-1.1-3.6-0.9-5.4-1.2
			c-0.6-0.1-1.3-0.4-1.9-0.6c-5-2.1-10.1-4.2-15.1-6.2c-1.9-0.8-3.9-1.6-5.9-2.2c-1.8-0.5-3.6-0.8-5.4-1.1
			c-3.4-0.5-8.6-0.9-11.4-0.9c-2.9,0-8.1,0.4-11.5,0.9c-1.8,0.3-3.6,0.6-5.4,1.1c-2,0.6-4,1.3-5.9,2.2c-5,2.1-10.1,4.2-15.1,6.2
			c-0.6,0.2-1.2,0.5-1.9,0.6c-1.8,0.3-3.8,0-5.4,1.2c-2.2,1.6-1.3,4.3-0.2,6.3c1.6,2.9,3.1,6,4.5,9.1c0.7,1.6,1.4,3.2,2,4.8
			c0.6,1.5,1.4,3,1.9,4.6c1.1,3.5,1.3,7.1,2,10.7c0.8,3.9,2.1,7.7,3.7,11.4c0.8,1.8,1.7,3.6,2.6,5.3c0.9,1.7,2.2,3.3,2.9,5.1
			c0.5,1.2,0.6,2.4,0.7,3.7c0.1,1,0.2,1.9,0.2,2.9c0.3,3.4,0.2,6.5,0.2,9.8c0.5,4.1,0.6,8.2,0.6,11.8c0.2,17.6,0.6,31.1,1.2,47.8
			L424,840.2L424,840.2L424,840.2L424,840.2z"/>
		<path class="st9" d="M489.3,708.4c-0.7-0.5-1.8-0.6-2.9-0.7c-0.6,0-1.1-0.1-1.7-0.2c-0.8-0.1-1.6-0.5-2.2-0.7l-15.1-6.2
			c-1.9-0.8-3.8-1.5-5.7-2.1c-1.7-0.5-3.6-0.8-5.2-1c-3.5-0.6-8.5-0.9-11.2-0.9s-7.7,0.3-11.2,0.9c-1.6,0.3-3.5,0.6-5.2,1
			c-1.9,0.5-3.8,1.3-5.7,2.1l-15.1,6.2c-0.6,0.3-1.4,0.6-2.2,0.7c-0.6,0.1-1.2,0.1-1.7,0.2c-1.1,0.1-2.2,0.2-2.9,0.7
			c-1,0.7-0.9,2.1,0.3,4.2c1.7,3.1,3.2,6.2,4.6,9.2c0.7,1.6,1.4,3.2,2,4.8c0.2,0.5,0.5,1.1,0.7,1.6c0.5,1,0.9,2,1.2,3.1
			c0.7,2.3,1.1,4.8,1.4,7.1c0.2,1.2,0.4,2.5,0.6,3.7c0.7,3.5,1.9,7.2,3.6,11c0.7,1.7,1.6,3.4,2.5,5.2c0.3,0.6,0.7,1.2,1.1,1.8
			c0.7,1.1,1.4,2.2,1.9,3.5c0.5,1.4,0.7,2.9,0.8,4.2l0.2,2.9c0.2,2.8,0.2,5.4,0.2,7.9v1.9c0.5,4.4,0.6,8.8,0.6,11.8
			c0.2,16.8,0.6,31.5,1.2,47.8h42.3c0.6-16.3,0.9-31,1.2-47.8c0-3,0.1-7.4,0.6-11.8v-1.9c0-2.5,0-5.2,0.2-7.9l0.2-2.9
			c0.1-1.3,0.2-2.8,0.8-4.2c0.5-1.2,1.2-2.4,1.9-3.5c0.4-0.6,0.8-1.2,1.1-1.8c1-1.8,1.8-3.5,2.5-5.2c1.7-3.9,2.9-7.5,3.6-11
			c0.2-1.2,0.4-2.5,0.6-3.7c0.4-2.3,0.7-4.8,1.4-7.1c0.3-1.1,0.8-2.1,1.2-3.1c0.2-0.5,0.5-1.1,0.7-1.6c0.6-1.6,1.3-3.2,2-4.8
			c1.4-3,2.9-6.1,4.6-9.2C490.2,710.5,490.3,709.1,489.3,708.4L489.3,708.4L489.3,708.4z"/>
	</g>
	<path class="st9" d="M463.5,840.2c-0.4-1.3-0.5-3,0.3-4.1c0.3-0.5,0.7-0.9,1-1.4c0.4-0.7,0.3-1.6-0.1-2.3c-0.3-0.5-0.8-0.9-1.2-1.4
		c-0.4-0.5-1.2-1.4-0.6-2c0.4-0.4,1.1-0.4,1.4-0.9c0.5-0.9-1.4-1.9-0.8-2.8c0.1-0.2,0.4-0.3,0.6-0.5c0.5-0.5,0.5-1.4,0-1.8
		c-0.7-0.6-1.7-1.2-0.4-1.9c0.4-0.2,0.8-0.4,1.1-0.7c0.3-0.3,0.4-0.8,0.3-1.2c-0.2-0.6-0.8-1-0.9-1.6c-0.1-0.6,0.2-1.2,0.7-1.7
		s0.9-0.9,1.1-1.5c0.4-1.6-2.4-2.8-1.5-4.2c0.3-0.5,0.9-0.6,1.3-0.9c0.6-0.5,0.7-1.5,0.2-2.1c-0.4-0.5-1.1-0.8-1-1.5
		c0.1-0.7,1.1-0.9,1.4-1.5c0.3-0.9-1.1-1.5-1.1-2.4c0-0.8,1.1-1.4,0.9-2.2c-0.1-0.4-0.5-0.7-0.7-1c-0.5-0.9,0.3-1.9,0.6-2.9
		c1.1-2.6-1.2-6.6-4.1-4.3c-0.7,0.5-1.2,1.3-1.9,1.9c-3,2.8-8.8,2-9.3-2.6c-0.3-2.6,1.2-4.2,2.1-6.4c1.2-3,1.4-6.2,1.2-9.4
		c-0.1-1.9-0.5-3.8-0.5-5.8c-0.1-2.1,0.5-3.8,0.9-5.8c0.4-2.1,1.3-4,2.2-5.9c3-6.3,6.8-12.3,9-19c1-3.1,1.7-6.3,3.1-9.2
		c1.6-3.5,4.1-6.5,7.2-8.7c2.1-1.5,4.4-2.5,6.5-3.9s4.1-3.2,5-5.5c0.3-0.7,0.4-1.7-0.1-2.2c-0.5-0.5-1.2-0.4-1.8-0.3
		c-6.6,0.9-12.1,5.4-18.2,8.1c-6.8,3.1-13.3,3.3-21.9,3.3h-0.1c-8.6,0-15.1-0.2-21.9-3.3c-6.1-2.8-11.6-7.2-18.2-8.1
		c-0.6-0.1-1.4-0.1-1.8,0.3c-0.6,0.5-0.4,1.5-0.1,2.2c0.9,2.3,2.9,4.1,5,5.5s4.4,2.5,6.5,3.9c3.1,2.2,5.6,5.2,7.2,8.7
		c1.4,3,2.1,6.2,3.1,9.2c2.2,6.6,5.9,12.6,9,19c0.9,1.9,1.8,3.9,2.2,5.9s0.9,3.7,0.9,5.8c-0.1,1.9-0.4,3.8-0.5,5.8
		c-0.2,3.2,0,6.4,1.2,9.4c0.9,2.2,2.4,3.8,2.1,6.4c-0.6,4.6-6.3,5.4-9.3,2.6c-0.7-0.6-1.2-1.3-1.9-1.9c-2.9-2.3-5.2,1.7-4.1,4.3
		c0.4,0.9,1.1,2,0.6,2.9c-0.2,0.4-0.6,0.6-0.7,1c-0.2,0.8,0.9,1.4,0.9,2.2c0,0.9-1.3,1.5-1.1,2.4c0.2,0.7,1.3,0.8,1.4,1.5
		c0.1,0.6-0.7,1-1,1.5c-0.5,0.6-0.4,1.6,0.2,2.1c0.4,0.3,1,0.5,1.3,0.9c0.9,1.4-1.9,2.6-1.5,4.2c0.1,0.6,0.6,1.1,1.1,1.5
		s0.8,1.1,0.7,1.7c-0.1,0.6-0.7,1-0.9,1.6c-0.1,0.4,0,0.9,0.3,1.2s0.7,0.5,1.1,0.7c1.3,0.8,0.2,1.4-0.4,1.9c-0.5,0.4-0.5,1.3,0,1.8
		c0.2,0.2,0.5,0.3,0.6,0.5c0.5,0.9-1.3,1.9-0.8,2.8c0.3,0.5,1,0.5,1.4,0.9c0.6,0.6-0.2,1.5-0.6,2c-0.4,0.5-0.9,0.8-1.2,1.4
		c-0.4,0.7-0.5,1.6-0.1,2.3c0.2,0.5,0.7,0.9,1,1.4c0.7,1.2,0.6,2.8,0.3,4.1H463.5L463.5,840.2L463.5,840.2z"/>
	<path class="st9" d="M576.6,699.2c-0.5-5.2-4.8-9.5-9.8-11.1c-5-1.7-10.4-1.1-15.5,0s-10,3-15.2,3.9c-7.5,1.3-15.6,0.6-22.5,4
		c-1.9,0.9-3.7,2.2-5.5,3.3c-2,1.2-4,2.3-6.1,3.3c-2.7,1.3-5.6,2.5-8.6,2.5c-3.8,0-6.8-1.8-10-3.8c-3.2-2-6.5-4-9.9-5.8
		c-3.6-1.8-7.2-3.5-11-4.8c-4.1-1.5-11.3-3-17.3-3.1c-7.1,0-13.3,1.6-17.4,3.1c-3.8,1.3-7.4,3-11,4.8c-3.4,1.7-6.7,3.8-9.9,5.8
		c-3.1,2-6.1,3.8-10,3.8c-3,0-5.9-1.2-8.6-2.5c-2.1-1-4.1-2.1-6.1-3.3c-1.8-1.1-3.6-2.4-5.5-3.3c-6.9-3.3-15-2.7-22.5-4
		c-5.2-0.9-10.1-2.7-15.2-3.9c-5.1-1.2-10.5-1.7-15.5,0c-4.9,1.7-9.3,5.9-9.8,11.1c-0.5,4.9,2.5,9.5,5.7,13.2c1.9,2.2,4,4.6,3.9,7.5
		c-0.1,1.6-0.8,3.1-1.8,4.4c-0.2,0.3-0.5,0.7-0.7,1c0,0.1-0.1,0.1,0,0.2c0,0.1,0.2,0.2,0.3,0.2c1,0.2,2-0.5,2.8-1.1
		c0.9-0.8,1.5-1.7,2.1-2.7c0.1-0.2,0.2-0.4,0.4-0.6c-0.2,0.4-0.2,1-0.3,1.5c0,0.5,0,1,0.1,1.5c0.1,1,0.3,2,0.8,2.8
		c0.2,0.3,0.4,0.6,0.6,0.8s0.6,0.4,0.9,0.3c0.1,0,0.2,0,0.2-0.1c0.1-0.1,0.1-0.3,0-0.5c-0.3-0.9-0.3-1.9-0.3-2.9c0-1,0-2,0-3
		c0-0.2,0-0.3,0.1-0.5c0.2,0.6,0.5,1.2,0.8,1.8c0.4,0.8,0.7,1.5,1.3,2.2c0.1,0.2,0.3,0.3,0.5,0.5s0.5,0.1,0.7,0
		c0.1,0,0.1-0.1,0.2-0.2c0.1-0.2,0-0.4-0.1-0.5c-0.5-0.9-0.7-1.9-0.9-2.8c-0.2-1-0.3-2-0.1-3c0.3,0.8,0.7,1.6,1.2,2.4
		c0.3,0.4,0.6,0.8,0.9,1.2c0.3,0.2,0.6,0.5,1,0.4c0.1,0,0.2-0.1,0.3-0.2s0.1-0.2,0.1-0.4c0-0.3-0.2-0.7-0.3-1
		c-0.3-0.7-0.7-1.3-1-1.9c-0.3-0.6-0.7-1.3-0.7-2c0-0.1,0-0.2,0.1-0.2c0.1-0.1,0.3,0,0.4,0.1c0.8,0.8,1.6,1.5,2.6,2.1
		c0.8,0.5,1.5,1,2.4,1.2c0.3,0.1,0.7,0.2,1,0.2c0.2,0,0.4-0.1,0.5-0.2c0.2-0.2,0.2-0.6,0-0.9c-0.3-0.5-0.7-0.7-1.1-0.9
		c-0.5-0.3-1-0.6-1.5-1c-0.7-0.5-1.3-1.1-1.9-1.7c-0.2-0.3-0.5-0.6-0.7-0.9c-0.1-0.2-0.5-0.8-0.2-0.9c0.2-0.1,0.4,0.2,0.6,0.2
		c0.2,0.1,0.4,0.2,0.6,0.3c0.4,0.2,0.9,0.4,1.4,0.6c0.9,0.4,1.9,0.7,2.8,0.8c1.3,0.2,2.6,0.6,3.9,0.4c0.2,0,0.4-0.1,0.6-0.2
		c0.2-0.1,0.3-0.3,0.3-0.5c0-0.2-0.1-0.5-0.4-0.6c-0.2-0.1-0.5-0.2-0.7-0.2c-0.6-0.2-1.3-0.3-1.9-0.6c-0.1-0.1-0.2-0.1-0.2-0.2
		c0,0,1.3,0.3,1.4,0.3c0.5,0.1,1,0.2,1.6,0.3c1.1,0.1,2.1,0.2,3.2,0.2c0.4,0,0.8,0,1.1,0c0.7,0,1.5-0.2,1.9-0.8
		c0.1-0.2,0.2-0.5,0-0.7c-0.1-0.2-0.4-0.2-0.6-0.2h-0.9c-0.2,0-0.4,0-0.6,0c-0.5,0-1.1,0-1.6-0.1c-1-0.1-2-0.3-3-0.6
		c0,0-0.1,0-0.1-0.1c0-0.1,0.1-0.1,0.1-0.1c1,0.1,2,0.1,3,0.1c1-0.1,2,0,3-0.2c1-0.2,2-0.4,3-0.8c0.6-0.2,1.2-0.5,1.6-1.1
		c0.1-0.2,0.2-0.3,0.2-0.6s-0.1-0.4-0.2-0.5c-0.2-0.1-0.4-0.1-0.7-0.1c-0.5,0.1-0.9,0.2-1.4,0.4c-0.8,0.3-1.6,0.6-2.4,0.8
		c-0.4,0.1-0.8,0.2-1.2,0.2c-0.3,0-0.5,0.1-0.9,0.1c0,0-0.1,0-0.1-0.1c-0.1-0.1,0-0.2,0.1-0.2c0.7-0.6,1.5-0.9,2.3-1.3
		c0.8-0.5,1.8-1,2.2-1.9c0.2-0.3,0.3-0.7,0.2-1.1c0-0.2-0.1-0.4-0.3-0.4c-0.2,0-0.3,0.1-0.5,0.2c-0.4,0.3-0.7,0.5-1.1,0.8
		c-1.7,1.1-3.5,2-5.6,2.1c-2.1,0.1-4.1-0.2-6.1-0.9c-2.7-0.9-5.2-2.5-7.5-4.2c-1.6-1.2-3.1-2.5-3.8-4.4c-0.2-0.6-0.3-1.2-0.1-1.8
		c0.3-0.9,1.1-1.4,2-1.8c3-1.5,6.4-2,9.8-2c4,0.1,7.9,1.1,11.6,2.5c1.7,0.6,3.6,1.8,5.3,2.1c1.8,0.3,3.6,0.3,5.4,0.3
		c3,0,6-0.3,8.8,0.6c1.3,0.5,2.6,1.2,3.8,1.9c4.8,2.8,9.6,5.8,14.9,7.4c1.6,0.5,3.3,0.8,4.9,1.5c3.9,1.8,5.8,4.8,7,8.8
		c3.1,9.9,2.8,20.8,6.7,30.4c2.7,6.6,7.2,12.3,10,18.8c1.6,3.6,2.4,7.9,2.9,12.3c0-3.2,0.1-6.4-0.2-9.8c-0.1-1-0.2-1.9-0.2-2.9
		c-0.1-1.2-0.2-2.5-0.7-3.7c-0.7-1.8-2-3.4-2.9-5.1c-0.9-1.7-1.8-3.5-2.6-5.3c-1.6-3.7-2.9-7.5-3.7-11.4c-0.7-3.5-0.9-7.2-2-10.7
		c-0.5-1.6-1.3-3.1-1.9-4.6c-0.6-1.6-1.3-3.2-2-4.8c-1.4-3.1-2.9-6.2-4.5-9.1c-1.1-2-2-4.8,0.2-6.3c1.5-1.1,3.6-0.9,5.4-1.2
		c0.6-0.1,1.3-0.4,1.9-0.6c5-2.1,10.1-4.2,15.1-6.2c1.9-0.8,3.9-1.6,5.9-2.2c1.8-0.5,3.6-0.8,5.4-1.1c3.4-0.5,8.6-0.9,11.5-0.9
		s8,0.4,11.4,0.9c1.8,0.3,3.6,0.6,5.4,1.1c2,0.6,4,1.3,5.9,2.2c5,2.1,10.1,4.2,15.1,6.2c0.6,0.2,1.2,0.5,1.9,0.6
		c1.8,0.3,3.8,0,5.4,1.2c2.2,1.6,1.3,4.3,0.2,6.3c-1.6,2.9-3.1,6-4.5,9.1c-0.7,1.6-1.4,3.2-2,4.8c-0.6,1.5-1.4,3-1.9,4.6
		c-1.1,3.5-1.3,7.1-2,10.7c-0.8,3.9-2.1,7.7-3.7,11.4c-0.8,1.8-1.7,3.6-2.6,5.3c-0.9,1.7-2.2,3.3-2.9,5.1c-0.5,1.2-0.6,2.4-0.7,3.7
		c-0.1,1-0.2,1.9-0.2,2.9c-0.3,3.4-0.2,6.5-0.2,9.8c0.5-4.4,1.4-8.8,2.9-12.3c2.9-6.5,7.4-12.2,10-18.8c3.9-9.6,3.7-20.5,6.7-30.4
		c1.2-4,3.1-7,7-8.8c1.5-0.7,3.2-1.1,4.9-1.5c5.3-1.6,10.1-4.6,14.9-7.4c1.2-0.7,2.5-1.4,3.8-1.9c2.8-0.9,5.8-0.7,8.8-0.6
		c1.8,0,3.8,0.1,5.5-0.2s3.5-1.2,5.2-2c3.7-1.6,7.6-2.6,11.6-2.7c3.4,0,6.8,0.5,9.8,2c0.8,0.4,1.7,0.9,2,1.8
		c0.2,0.6,0.1,1.2-0.1,1.8c-0.6,1.9-2.2,3.2-3.8,4.4c-2.3,1.7-4.8,3.3-7.5,4.2c-1.9,0.7-4,1-6.1,0.9c-2.1-0.1-3.9-1-5.6-2.1
		c-0.4-0.2-0.8-0.5-1.1-0.8c-0.1-0.1-0.3-0.2-0.5-0.2c-0.2,0-0.3,0.2-0.3,0.4c-0.1,0.4,0,0.8,0.2,1.1c0.5,0.9,1.3,1.4,2.2,1.9
		c0.8,0.4,1.6,0.7,2.3,1.3c0.1,0.1,0.2,0.2,0.1,0.2c0,0-0.1,0.1-0.2,0.1c-0.3,0-0.6,0-0.8-0.1c-0.4-0.1-0.8-0.1-1.2-0.2
		c-0.8-0.2-1.6-0.5-2.4-0.8c-0.4-0.2-0.9-0.3-1.3-0.4c-0.2,0-0.5,0-0.7,0.1c-0.2,0.1-0.2,0.3-0.2,0.5s0.1,0.4,0.2,0.6
		c0.4,0.5,1,0.8,1.6,1.1c1,0.4,2,0.6,3,0.8c1,0.2,2,0.2,3,0.2c1,0.1,2,0,3-0.1c0.1,0,0.2,0,0.2,0.1c0,0,0,0.1-0.1,0.1
		c-1,0.3-2,0.5-3,0.6c-0.5,0.1-1,0.1-1.6,0.1c-0.2,0-0.4,0-0.7,0h-1c-0.2,0-0.5,0-0.6,0.2c-0.2,0.2-0.1,0.5,0,0.7
		c0.4,0.6,1.2,0.8,1.9,0.8c0.4,0,0.8,0,1.1,0c1.1,0,2.1-0.1,3.2-0.2c0.5-0.1,1.1-0.2,1.6-0.3c0.1,0,1.4-0.3,1.4-0.3
		c0,0.1-0.1,0.2-0.2,0.2c-0.5,0.3-1.2,0.5-1.9,0.6c-0.2,0-0.5,0.1-0.7,0.2s-0.4,0.4-0.3,0.6c0,0.2,0.2,0.4,0.3,0.5
		c0.2,0.1,0.4,0.2,0.6,0.2c1.3,0.2,2.6-0.1,3.9-0.4c1-0.2,1.9-0.5,2.8-0.8c0.5-0.2,0.9-0.4,1.3-0.6c0.2-0.1,0.4-0.2,0.7-0.3
		c0.1-0.1,0.4-0.3,0.6-0.2c0.3,0.2-0.1,0.7-0.2,0.9c-0.2,0.3-0.4,0.6-0.7,0.9c-0.6,0.6-1.2,1.2-1.9,1.7c-0.5,0.4-1,0.7-1.5,1
		c-0.4,0.3-0.9,0.5-1.1,0.9c-0.2,0.3-0.2,0.7,0,0.9c0.1,0.1,0.3,0.2,0.5,0.2c0.3,0,0.7-0.1,1-0.2c0.9-0.3,1.7-0.8,2.4-1.2
		c0.9-0.6,1.8-1.3,2.6-2.1c0.1-0.1,0.3-0.2,0.4-0.1c0.1,0,0.1,0.2,0.1,0.2c0,0.7-0.4,1.4-0.7,2c-0.3,0.7-0.7,1.3-1,1.9
		c-0.2,0.3-0.3,0.6-0.3,1c0,0.1,0,0.3,0.1,0.4s0.2,0.2,0.3,0.2c0.4,0.1,0.7-0.2,1-0.4c0.4-0.3,0.7-0.8,0.9-1.2
		c0.5-0.8,0.9-1.6,1.2-2.4c0.2,1,0.1,2-0.1,3c-0.2,1-0.5,2-0.9,2.8c-0.1,0.2-0.2,0.4-0.1,0.5c0,0.1,0.1,0.1,0.2,0.2
		c0.2,0.1,0.5,0,0.7,0c0.2-0.1,0.4-0.3,0.5-0.5c0.6-0.6,0.9-1.4,1.3-2.2c0.3-0.6,0.5-1.2,0.8-1.8c0.1,0.1,0.1,0.3,0.1,0.5
		c0.1,1,0.1,2,0,3c0,1,0,2-0.3,2.9c0,0.2-0.1,0.3,0,0.5c0.1,0,0.1,0.1,0.2,0.1c0.3,0,0.7-0.1,0.9-0.3c0.2-0.2,0.4-0.5,0.6-0.8
		c0.5-0.9,0.8-1.9,0.8-2.8c0-0.5,0.1-1,0.1-1.5c0-0.5,0-1-0.3-1.5c0.1,0.2,0.2,0.4,0.3,0.6c0.6,1,1.2,1.9,2.1,2.7
		c0.7,0.7,1.8,1.3,2.8,1.1c0.1,0,0.3-0.1,0.3-0.2c0-0.1,0-0.1,0-0.2c-0.2-0.4-0.5-0.7-0.7-1c-1-1.3-1.7-2.8-1.8-4.4
		c-0.1-2.9,2-5.3,3.9-7.5C574.1,708.7,577.1,704.1,576.6,699.2L576.6,699.2L576.6,699.2z"/>
</g>
<path class="st2" d="M86.2,312.8h6.7v35.4l3.7,2.4c-0.8-13.4,14.1-23,26.2-18.7c17.2,7.5,31.8,34.5,37.2,49.9
	c3.7,13.7,3.7,25.9,1.7,38.9c-5.5,20.9-33.4,29.6-50.1,15.7c-18.9-12.5-14.8-40.8-15-60.1l-14.4-9.4l-14.4,9.4
	c-0.7,13.3,2.9,38.4-5.8,49.7c-15.3,27.5-58.7,20-60.5-12.2c0.2-10.8-1-20.5,2.7-32c5.1-15,19.4-40.4,35.3-49.1
	c12.3-6,29,3.8,28.2,17.9l3.7-2.4v-35.4h6.7C80.8,312.8,83.5,312.8,86.2,312.8L86.2,312.8z"/>
<path class="st5" d="M433.9,312.7h-57.3c-18.2,0-33-14.8-33-33v-46h90.3V312.7z"/>
<path class="st5" d="M374.6,371.1h-31.7v-33c0-14,11.4-25.4,25.4-25.4h64.7v0C432.9,344.9,406.8,371.1,374.6,371.1z"/>
<path class="st5" d="M341.8,370.2L341.8,370.2c-28.9,0-52.3-23.4-52.3-52.3v-4.3h25.8c14.6,0,26.4,11.8,26.4,26.4V370.2z"/>
<path class="st5" d="M285.5,313.6h26.6c16.4,0,29.7-13.3,29.7-29.7v-50.2h0c-31.1,0-56.3,25.2-56.3,56.3V313.6z"/>
<path class="st5" d="M465.7,312.7H523c18.2,0,33-14.8,33-33v-46h-90.3V312.7z"/>
<path class="st5" d="M612.5,313.2h-26.6c-16.4,0-29.7-13.3-29.7-29.7v-50.2h0c31.1,0,56.3,25.2,56.3,56.3V313.2z"/>
<path class="st5" d="M558.2,370.2L558.2,370.2c28.9,0,52.3-23.4,52.3-52.3v-4.3h-25.8c-14.6,0-26.4,11.8-26.4,26.4V370.2z"/>
<path class="st5" d="M524.1,371.1h31.7v-33c0-14-11.4-25.4-25.4-25.4h-64.7v0C465.8,344.9,491.9,371.1,524.1,371.1z"/>
</svg>
